<svg xmlns="http://www.w3.org/2000/svg" xmlns:xlink="http://www.w3.org/1999/xlink" width="500" zoomAndPan="magnify" viewBox="0 0 375 374.999991" height="500" preserveAspectRatio="xMidYMid meet" version="1.0"><defs><clipPath id="036afe09c6"><path d="M 202 116.976562 L 273 116.976562 L 273 257.976562 L 202 257.976562 Z M 202 116.976562 " clip-rule="nonzero"/></clipPath><clipPath id="10f43ea7b7"><path d="M 102.015625 116.976562 L 173 116.976562 L 173 257.976562 L 102.015625 257.976562 Z M 102.015625 116.976562 " clip-rule="nonzero"/></clipPath></defs><g clip-path="url(#036afe09c6)"><path fill="#29acff" d="M 202.355469 116.960938 L 202.355469 145.804688 L 244.027344 187.480469 L 202.355469 229.15625 L 202.355469 258 L 272.875 187.480469 Z M 202.355469 116.960938 " fill-opacity="1" fill-rule="nonzero"/></g><g clip-path="url(#10f43ea7b7)"><path fill="#29acff" d="M 172.679688 145.804688 L 172.679688 116.960938 L 102.160156 187.480469 L 172.679688 258 L 172.679688 229.15625 L 131.007812 187.480469 Z M 172.679688 145.804688 " fill-opacity="1" fill-rule="nonzero"/></g><path fill="#29acff" d="M 153.078125 187.480469 L 187.515625 153.039062 L 221.957031 187.480469 L 187.515625 221.921875 Z M 153.078125 187.480469 " fill-opacity="1" fill-rule="nonzero"/></svg>