<svg xmlns="http://www.w3.org/2000/svg" xmlns:xlink="http://www.w3.org/1999/xlink" width="500" zoomAndPan="magnify" viewBox="0 0 375 374.999991" height="500" preserveAspectRatio="xMidYMid meet" version="1.0"><defs><g/><clipPath id="88df06bea3"><path d="M 194 125.625 L 225 125.625 L 225 187.875 L 194 187.875 Z M 194 125.625 " clip-rule="nonzero"/></clipPath><clipPath id="3bb8810593"><path d="M 150 125.625 L 181 125.625 L 181 187.875 L 150 187.875 Z M 150 125.625 " clip-rule="nonzero"/></clipPath></defs><g clip-path="url(#88df06bea3)"><path fill="#29acff" d="M 194.015625 125.617188 L 194.015625 138.273438 L 212.296875 156.554688 L 194.015625 174.835938 L 194.015625 187.488281 L 224.953125 156.554688 Z M 194.015625 125.617188 " fill-opacity="1" fill-rule="nonzero"/></g><g clip-path="url(#3bb8810593)"><path fill="#29acff" d="M 181 138.273438 L 181 125.617188 L 150.0625 156.554688 L 181 187.488281 L 181 174.835938 L 162.71875 156.554688 Z M 181 138.273438 " fill-opacity="1" fill-rule="nonzero"/></g><path fill="#29acff" d="M 172.398438 156.554688 L 187.507812 141.445312 L 202.617188 156.554688 L 187.507812 171.664062 Z M 172.398438 156.554688 " fill-opacity="1" fill-rule="nonzero"/><g fill="#ffffff" fill-opacity="1"><g transform="translate(103.1512, 227.073587)"><g><path d="M 11.734375 0.359375 C 7.835938 0.359375 4.429688 0.1875 1.515625 -0.15625 L 1.359375 -4.21875 C 4.285156 -3.832031 6.617188 -3.578125 8.359375 -3.453125 C 10.109375 -3.347656 12.164062 -3.257812 14.53125 -3.1875 L 14.53125 -5.640625 L 6.421875 -6.265625 C 4.609375 -6.421875 3.269531 -6.863281 2.40625 -7.59375 C 1.539062 -8.332031 1.109375 -9.410156 1.109375 -10.828125 C 1.109375 -12.441406 1.695312 -13.628906 2.875 -14.390625 C 4.050781 -15.148438 5.90625 -15.53125 8.4375 -15.53125 C 11.082031 -15.53125 14.363281 -15.375 18.28125 -15.0625 L 18.40625 -11 C 15.53125 -11.382812 12.921875 -11.648438 10.578125 -11.796875 C 9.003906 -11.898438 7.445312 -11.960938 5.90625 -11.984375 L 5.90625 -9.59375 L 13.59375 -8.984375 C 15.570312 -8.828125 17.019531 -8.382812 17.9375 -7.65625 C 18.863281 -6.925781 19.328125 -5.820312 19.328125 -4.34375 C 19.328125 -2.757812 18.738281 -1.578125 17.5625 -0.796875 C 16.394531 -0.0234375 14.453125 0.359375 11.734375 0.359375 Z M 11.734375 0.359375 "/></g></g></g><g fill="#ffffff" fill-opacity="1"><g transform="translate(125.598495, 227.073587)"><g><path d="M 16.640625 -9.65625 L 16.640625 -15.171875 L 21.21875 -15.171875 L 21.21875 0 L 16.640625 0 L 16.640625 -5.78125 L 7.03125 -5.78125 L 7.03125 0 L 2.453125 0 L 2.453125 -15.171875 L 7.03125 -15.171875 L 7.03125 -9.65625 Z M 16.640625 -9.65625 "/></g></g></g><g fill="#ffffff" fill-opacity="1"><g transform="translate(151.504243, 227.073587)"><g><path d="M 7.1875 -15.171875 L 13.8125 -15.171875 L 21.109375 -0.109375 L 21.109375 0 L 16.125 0 L 14.75 -2.984375 L 6.1875 -2.984375 L 4.796875 0 L -0.0625 0 L -0.0625 -0.109375 Z M 10.421875 -12.078125 L 7.765625 -6.359375 L 13.1875 -6.359375 L 10.53125 -12.078125 Z M 10.421875 -12.078125 "/></g></g></g><g fill="#ffffff" fill-opacity="1"><g transform="translate(174.799417, 227.073587)"><g><path d="M 16.640625 -9.65625 L 16.640625 -15.171875 L 21.21875 -15.171875 L 21.21875 0 L 16.640625 0 L 16.640625 -5.78125 L 7.03125 -5.78125 L 7.03125 0 L 2.453125 0 L 2.453125 -15.171875 L 7.03125 -15.171875 L 7.03125 -9.65625 Z M 16.640625 -9.65625 "/></g></g></g><g fill="#ffffff" fill-opacity="1"><g transform="translate(200.705165, 227.073587)"><g><path d="M 20.03125 0 L 2.453125 0 L 2.453125 -15.171875 L 19.703125 -15.171875 L 19.703125 -11.46875 L 7.03125 -11.46875 L 7.03125 -9.140625 L 16.265625 -9.140625 L 16.265625 -6.03125 L 7.03125 -6.03125 L 7.03125 -3.703125 L 20.03125 -3.703125 Z M 20.03125 0 "/></g></g></g><g fill="#ffffff" fill-opacity="1"><g transform="translate(224.312723, 227.073587)"><g><path d="M 20.03125 0 L 2.453125 0 L 2.453125 -15.171875 L 19.703125 -15.171875 L 19.703125 -11.46875 L 7.03125 -11.46875 L 7.03125 -9.140625 L 16.265625 -9.140625 L 16.265625 -6.03125 L 7.03125 -6.03125 L 7.03125 -3.703125 L 20.03125 -3.703125 Z M 20.03125 0 "/></g></g></g><g fill="#ffffff" fill-opacity="1"><g transform="translate(247.920281, 227.073587)"><g><path d="M 6.84375 0 L 2.453125 0 L 2.453125 -15.171875 L 10.015625 -15.171875 L 16.953125 -3.09375 L 17.0625 -3.09375 L 17.0625 -15.171875 L 21.46875 -15.171875 L 21.46875 0 L 13.90625 0 L 6.96875 -12.078125 L 6.84375 -12.078125 Z M 6.84375 0 "/></g></g></g><g fill="#ffffff" fill-opacity="1"><g transform="translate(134.336275, 249.448827)"><g><path d="M 6.734375 -5 L 5.859375 -5 C 5.785156 -5.332031 5.644531 -5.613281 5.4375 -5.84375 C 5.238281 -6.070312 5 -6.242188 4.71875 -6.359375 C 4.4375 -6.484375 4.132812 -6.546875 3.8125 -6.546875 C 3.363281 -6.546875 2.960938 -6.429688 2.609375 -6.203125 C 2.253906 -5.984375 1.972656 -5.65625 1.765625 -5.21875 C 1.554688 -4.789062 1.453125 -4.265625 1.453125 -3.640625 C 1.453125 -3.003906 1.554688 -2.46875 1.765625 -2.03125 C 1.972656 -1.601562 2.253906 -1.273438 2.609375 -1.046875 C 2.960938 -0.828125 3.363281 -0.71875 3.8125 -0.71875 C 4.132812 -0.71875 4.4375 -0.773438 4.71875 -0.890625 C 5 -1.015625 5.238281 -1.191406 5.4375 -1.421875 C 5.644531 -1.648438 5.785156 -1.929688 5.859375 -2.265625 L 6.734375 -2.265625 C 6.640625 -1.773438 6.453125 -1.351562 6.171875 -1 C 5.898438 -0.644531 5.554688 -0.375 5.140625 -0.1875 C 4.734375 0 4.289062 0.09375 3.8125 0.09375 C 3.1875 0.09375 2.628906 -0.0546875 2.140625 -0.359375 C 1.660156 -0.660156 1.28125 -1.085938 1 -1.640625 C 0.726562 -2.203125 0.59375 -2.867188 0.59375 -3.640625 C 0.59375 -4.398438 0.726562 -5.0625 1 -5.625 C 1.28125 -6.1875 1.660156 -6.617188 2.140625 -6.921875 C 2.628906 -7.222656 3.1875 -7.375 3.8125 -7.375 C 4.289062 -7.375 4.734375 -7.28125 5.140625 -7.09375 C 5.554688 -6.90625 5.898438 -6.632812 6.171875 -6.28125 C 6.453125 -5.925781 6.640625 -5.5 6.734375 -5 Z M 6.734375 -5 "/></g></g></g><g fill="#ffffff" fill-opacity="1"><g transform="translate(143.606289, 249.448827)"><g><path d="M 7.015625 -3.640625 C 7.015625 -2.867188 6.875 -2.203125 6.59375 -1.640625 C 6.320312 -1.085938 5.941406 -0.660156 5.453125 -0.359375 C 4.972656 -0.0546875 4.425781 0.09375 3.8125 0.09375 C 3.1875 0.09375 2.628906 -0.0546875 2.140625 -0.359375 C 1.660156 -0.660156 1.28125 -1.085938 1 -1.640625 C 0.726562 -2.203125 0.59375 -2.867188 0.59375 -3.640625 C 0.59375 -4.398438 0.726562 -5.0625 1 -5.625 C 1.28125 -6.1875 1.660156 -6.617188 2.140625 -6.921875 C 2.628906 -7.222656 3.1875 -7.375 3.8125 -7.375 C 4.425781 -7.375 4.972656 -7.222656 5.453125 -6.921875 C 5.941406 -6.617188 6.320312 -6.1875 6.59375 -5.625 C 6.875 -5.0625 7.015625 -4.398438 7.015625 -3.640625 Z M 6.171875 -3.640625 C 6.171875 -4.265625 6.0625 -4.789062 5.84375 -5.21875 C 5.632812 -5.65625 5.351562 -5.984375 5 -6.203125 C 4.644531 -6.429688 4.25 -6.546875 3.8125 -6.546875 C 3.363281 -6.546875 2.960938 -6.429688 2.609375 -6.203125 C 2.253906 -5.984375 1.972656 -5.65625 1.765625 -5.21875 C 1.554688 -4.789062 1.453125 -4.265625 1.453125 -3.640625 C 1.453125 -3.003906 1.554688 -2.46875 1.765625 -2.03125 C 1.972656 -1.601562 2.253906 -1.273438 2.609375 -1.046875 C 2.960938 -0.828125 3.363281 -0.71875 3.8125 -0.71875 C 4.25 -0.71875 4.644531 -0.828125 5 -1.046875 C 5.351562 -1.273438 5.632812 -1.601562 5.84375 -2.03125 C 6.0625 -2.46875 6.171875 -3.003906 6.171875 -3.640625 Z M 6.171875 -3.640625 "/></g></g></g><g fill="#ffffff" fill-opacity="1"><g transform="translate(153.217086, 249.448827)"><g><path d="M 3.125 0 L 0.875 0 L 0.875 -7.265625 L 3.21875 -7.265625 C 3.925781 -7.265625 4.53125 -7.117188 5.03125 -6.828125 C 5.53125 -6.546875 5.914062 -6.132812 6.1875 -5.59375 C 6.457031 -5.050781 6.59375 -4.40625 6.59375 -3.65625 C 6.59375 -2.894531 6.457031 -2.238281 6.1875 -1.6875 C 5.914062 -1.144531 5.519531 -0.726562 5 -0.4375 C 4.488281 -0.144531 3.863281 0 3.125 0 Z M 1.765625 -0.78125 L 3.0625 -0.78125 C 3.96875 -0.78125 4.640625 -1.035156 5.078125 -1.546875 C 5.515625 -2.054688 5.734375 -2.757812 5.734375 -3.65625 C 5.734375 -4.53125 5.519531 -5.21875 5.09375 -5.71875 C 4.664062 -6.226562 4.023438 -6.484375 3.171875 -6.484375 L 1.765625 -6.484375 Z M 1.765625 -0.78125 "/></g></g></g><g fill="#ffffff" fill-opacity="1"><g transform="translate(162.40191, 249.448827)"><g><path d="M 0.875 0 L 0.875 -7.265625 L 5.265625 -7.265625 L 5.265625 -6.484375 L 1.765625 -6.484375 L 1.765625 -4.03125 L 5.046875 -4.03125 L 5.046875 -3.25 L 1.765625 -3.25 L 1.765625 -0.78125 L 5.328125 -0.78125 L 5.328125 0 Z M 0.875 0 "/></g></g></g><g fill="#ffffff" fill-opacity="1"><g transform="translate(170.379795, 249.448827)"><g/></g></g><g fill="#ffffff" fill-opacity="1"><g transform="translate(175.191248, 249.448827)"><g><path d="M 6.734375 -5 L 5.859375 -5 C 5.785156 -5.332031 5.644531 -5.613281 5.4375 -5.84375 C 5.238281 -6.070312 5 -6.242188 4.71875 -6.359375 C 4.4375 -6.484375 4.132812 -6.546875 3.8125 -6.546875 C 3.363281 -6.546875 2.960938 -6.429688 2.609375 -6.203125 C 2.253906 -5.984375 1.972656 -5.65625 1.765625 -5.21875 C 1.554688 -4.789062 1.453125 -4.265625 1.453125 -3.640625 C 1.453125 -3.003906 1.554688 -2.46875 1.765625 -2.03125 C 1.972656 -1.601562 2.253906 -1.273438 2.609375 -1.046875 C 2.960938 -0.828125 3.363281 -0.71875 3.8125 -0.71875 C 4.132812 -0.71875 4.4375 -0.773438 4.71875 -0.890625 C 5 -1.015625 5.238281 -1.191406 5.4375 -1.421875 C 5.644531 -1.648438 5.785156 -1.929688 5.859375 -2.265625 L 6.734375 -2.265625 C 6.640625 -1.773438 6.453125 -1.351562 6.171875 -1 C 5.898438 -0.644531 5.554688 -0.375 5.140625 -0.1875 C 4.734375 0 4.289062 0.09375 3.8125 0.09375 C 3.1875 0.09375 2.628906 -0.0546875 2.140625 -0.359375 C 1.660156 -0.660156 1.28125 -1.085938 1 -1.640625 C 0.726562 -2.203125 0.59375 -2.867188 0.59375 -3.640625 C 0.59375 -4.398438 0.726562 -5.0625 1 -5.625 C 1.28125 -6.1875 1.660156 -6.617188 2.140625 -6.921875 C 2.628906 -7.222656 3.1875 -7.375 3.8125 -7.375 C 4.289062 -7.375 4.734375 -7.28125 5.140625 -7.09375 C 5.554688 -6.90625 5.898438 -6.632812 6.171875 -6.28125 C 6.453125 -5.925781 6.640625 -5.5 6.734375 -5 Z M 6.734375 -5 "/></g></g></g><g fill="#ffffff" fill-opacity="1"><g transform="translate(184.461262, 249.448827)"><g><path d="M 0.875 0 L 0.875 -7.265625 L 3.34375 -7.265625 C 3.90625 -7.265625 4.367188 -7.164062 4.734375 -6.96875 C 5.097656 -6.78125 5.367188 -6.519531 5.546875 -6.1875 C 5.722656 -5.851562 5.8125 -5.472656 5.8125 -5.046875 C 5.8125 -4.554688 5.695312 -4.132812 5.46875 -3.78125 C 5.25 -3.425781 4.910156 -3.164062 4.453125 -3 L 6.09375 0 L 5.078125 0 L 3.53125 -2.84375 C 3.476562 -2.84375 3.421875 -2.84375 3.359375 -2.84375 L 1.765625 -2.84375 L 1.765625 0 Z M 1.765625 -3.640625 L 3.328125 -3.640625 C 3.910156 -3.640625 4.320312 -3.765625 4.5625 -4.015625 C 4.8125 -4.265625 4.9375 -4.609375 4.9375 -5.046875 C 4.9375 -5.484375 4.8125 -5.832031 4.5625 -6.09375 C 4.3125 -6.351562 3.894531 -6.484375 3.3125 -6.484375 L 1.765625 -6.484375 Z M 1.765625 -3.640625 "/></g></g></g><g fill="#ffffff" fill-opacity="1"><g transform="translate(192.850931, 249.448827)"><g><path d="M 1.171875 0 L 0.25 0 L 2.921875 -7.265625 L 3.828125 -7.265625 L 6.5 0 L 5.578125 0 L 4.84375 -2.0625 L 1.90625 -2.0625 Z M 2.1875 -2.84375 L 4.578125 -2.84375 L 3.40625 -6.125 L 3.359375 -6.125 Z M 2.1875 -2.84375 "/></g></g></g><g fill="#ffffff" fill-opacity="1"><g transform="translate(201.609769, 249.448827)"><g><path d="M 0.875 0 L 0.875 -7.265625 L 5.234375 -7.265625 L 5.234375 -6.484375 L 1.765625 -6.484375 L 1.765625 -4.03125 L 4.921875 -4.03125 L 4.921875 -3.25 L 1.765625 -3.25 L 1.765625 0 Z M 0.875 0 "/></g></g></g><g fill="#ffffff" fill-opacity="1"><g transform="translate(209.474057, 249.448827)"><g><path d="M 0.484375 -6.484375 L 0.484375 -7.265625 L 5.9375 -7.265625 L 5.9375 -6.484375 L 3.65625 -6.484375 L 3.65625 0 L 2.765625 0 L 2.765625 -6.484375 Z M 0.484375 -6.484375 "/></g></g></g><g fill="#ffffff" fill-opacity="1"><g transform="translate(217.892113, 249.448827)"><g><path d="M 0.875 0 L 0.875 -7.265625 L 5.265625 -7.265625 L 5.265625 -6.484375 L 1.765625 -6.484375 L 1.765625 -4.03125 L 5.046875 -4.03125 L 5.046875 -3.25 L 1.765625 -3.25 L 1.765625 -0.78125 L 5.328125 -0.78125 L 5.328125 0 Z M 0.875 0 "/></g></g></g><g fill="#ffffff" fill-opacity="1"><g transform="translate(225.869995, 249.448827)"><g><path d="M 0.875 0 L 0.875 -7.265625 L 3.34375 -7.265625 C 3.90625 -7.265625 4.367188 -7.164062 4.734375 -6.96875 C 5.097656 -6.78125 5.367188 -6.519531 5.546875 -6.1875 C 5.722656 -5.851562 5.8125 -5.472656 5.8125 -5.046875 C 5.8125 -4.554688 5.695312 -4.132812 5.46875 -3.78125 C 5.25 -3.425781 4.910156 -3.164062 4.453125 -3 L 6.09375 0 L 5.078125 0 L 3.53125 -2.84375 C 3.476562 -2.84375 3.421875 -2.84375 3.359375 -2.84375 L 1.765625 -2.84375 L 1.765625 0 Z M 1.765625 -3.640625 L 3.328125 -3.640625 C 3.910156 -3.640625 4.320312 -3.765625 4.5625 -4.015625 C 4.8125 -4.265625 4.9375 -4.609375 4.9375 -5.046875 C 4.9375 -5.484375 4.8125 -5.832031 4.5625 -6.09375 C 4.3125 -6.351562 3.894531 -6.484375 3.3125 -6.484375 L 1.765625 -6.484375 Z M 1.765625 -3.640625 "/></g></g></g><g fill="#ffffff" fill-opacity="1"><g transform="translate(234.259658, 249.448827)"><g><path d="M 4.859375 -5.453125 C 4.816406 -5.816406 4.644531 -6.097656 4.34375 -6.296875 C 4.039062 -6.492188 3.664062 -6.59375 3.21875 -6.59375 C 2.738281 -6.59375 2.351562 -6.476562 2.0625 -6.25 C 1.769531 -6.019531 1.625 -5.734375 1.625 -5.390625 C 1.625 -5.128906 1.703125 -4.914062 1.859375 -4.75 C 2.015625 -4.59375 2.203125 -4.46875 2.421875 -4.375 C 2.640625 -4.289062 2.84375 -4.222656 3.03125 -4.171875 L 3.765625 -3.984375 C 3.953125 -3.929688 4.160156 -3.859375 4.390625 -3.765625 C 4.628906 -3.679688 4.851562 -3.5625 5.0625 -3.40625 C 5.28125 -3.257812 5.457031 -3.066406 5.59375 -2.828125 C 5.738281 -2.597656 5.8125 -2.3125 5.8125 -1.96875 C 5.8125 -1.582031 5.707031 -1.226562 5.5 -0.90625 C 5.300781 -0.59375 5.003906 -0.34375 4.609375 -0.15625 C 4.210938 0.03125 3.738281 0.125 3.1875 0.125 C 2.40625 0.125 1.78125 -0.0546875 1.3125 -0.421875 C 0.851562 -0.796875 0.601562 -1.28125 0.5625 -1.875 L 1.484375 -1.875 C 1.503906 -1.601562 1.59375 -1.375 1.75 -1.1875 C 1.914062 -1.007812 2.125 -0.878906 2.375 -0.796875 C 2.625 -0.710938 2.894531 -0.671875 3.1875 -0.671875 C 3.519531 -0.671875 3.816406 -0.722656 4.078125 -0.828125 C 4.347656 -0.941406 4.5625 -1.097656 4.71875 -1.296875 C 4.875 -1.492188 4.953125 -1.722656 4.953125 -1.984375 C 4.953125 -2.222656 4.882812 -2.421875 4.75 -2.578125 C 4.613281 -2.734375 4.4375 -2.859375 4.21875 -2.953125 C 4 -3.046875 3.765625 -3.128906 3.515625 -3.203125 L 2.609375 -3.453125 C 2.046875 -3.617188 1.597656 -3.851562 1.265625 -4.15625 C 0.929688 -4.457031 0.765625 -4.851562 0.765625 -5.34375 C 0.765625 -5.75 0.875 -6.101562 1.09375 -6.40625 C 1.320312 -6.707031 1.625 -6.941406 2 -7.109375 C 2.375 -7.285156 2.789062 -7.375 3.25 -7.375 C 3.71875 -7.375 4.132812 -7.289062 4.5 -7.125 C 4.863281 -6.957031 5.148438 -6.726562 5.359375 -6.4375 C 5.578125 -6.144531 5.691406 -5.816406 5.703125 -5.453125 Z M 4.859375 -5.453125 "/></g></g></g></svg>